<svg xmlns="http://www.w3.org/2000/svg" viewBox="0 0 24 24" width="24" height="24" fill="currentColor">
  <path d="M12 2C6.477 2 2 6.477 2 12s4.477 10 10 10 10-4.477 10-10S17.523 2 12 2zm7.938 9h-3.308a15.992 15.992 0 0 0-1.2-5.071A8.03 8.03 0 0 1 19.938 11zM12 4c.93 0 2.47 1.86 3.213 5H8.787C9.53 5.86 11.07 4 12 4zM7.57 5.929A15.992 15.992 0 0 0 6.37 11H3.062a8.03 8.03 0 0 1 4.508-5.071zM4.062 13H6.37c.2 1.784.67 3.49 1.2 5.071A8.03 8.03 0 0 1 4.062 13zM12 20c-.93 0-2.47-1.86-3.213-5h6.426C14.47 18.14 12.93 20 12 20zm4.43-1.929c.53-1.582 1-3.287 1.2-5.071h3.308a8.03 8.03 0 0 1-4.508 5.071zM8.787 13h6.426c-.743 3.14-2.283 5-3.213 5s-2.47-1.86-3.213-5z"/>
</svg>
